<svg width="304" height="199" viewBox="0 0 304 199" fill="none" xmlns="http://www.w3.org/2000/svg">
<path d="M124.386 136.544C124.386 170.893 96.5416 198.737 62.1932 198.737C27.8449 198.737 0 170.893 0 136.544C0 118.435 7.74023 102.133 20.0929 90.7664C31.1694 80.5745 45.9545 74.351 62.1932 74.351C96.5416 74.351 124.386 102.196 124.386 136.544Z" fill="white" fill-opacity="0.12"/>
<path d="M124.386 136.544C124.386 170.893 96.5416 198.737 62.1932 198.737H241.687C207.339 198.737 179.494 170.893 179.494 136.544C179.494 132.157 179.948 127.875 180.813 123.744C177.884 124.167 174.889 124.386 171.842 124.386C141.655 124.386 116.49 102.879 110.837 74.351H70.2679H62.1932C96.5416 74.351 124.386 102.196 124.386 136.544Z" fill="white" fill-opacity="0.12"/>
<path d="M110.837 74.351C110.058 70.4191 109.649 66.3539 109.649 62.1932C109.649 56.7289 110.354 51.4291 111.677 46.3799C106.48 55.7036 90.9224 74.351 70.2679 74.351H110.837Z" fill="white" fill-opacity="0.12"/>
<path fill-rule="evenodd" clip-rule="evenodd" d="M241.687 198.737C276.036 198.737 303.88 170.893 303.88 136.544C303.88 102.196 276.036 74.351 241.687 74.351C238.641 74.351 235.646 74.57 232.717 74.9931C227.416 100.333 206.692 120.006 180.813 123.744C179.948 127.875 179.494 132.157 179.494 136.544C179.494 170.893 207.339 198.737 241.687 198.737Z" fill="white" fill-opacity="0.12"/>
<path d="M232.717 74.9931C227.416 100.333 206.692 120.006 180.813 123.744C186.114 98.4044 206.838 78.7315 232.717 74.9931Z" fill="white" fill-opacity="0.12"/>
<path d="M234.036 62.1932C234.036 27.8449 206.191 0 171.842 0C142.958 0 118.673 19.6901 111.677 46.3799C110.354 51.4291 109.649 56.7289 109.649 62.1932C109.649 66.3539 110.058 70.4191 110.837 74.351C116.49 102.879 141.655 124.386 171.842 124.386C174.889 124.386 177.884 124.167 180.813 123.744C186.114 98.4044 206.838 78.7315 232.717 74.9931C233.581 70.8622 234.036 66.5808 234.036 62.1932Z" fill="white" fill-opacity="0.12"/>
</svg>
